<svg id="Capa_1" data-name="Capa 1" xmlns="http://www.w3.org/2000/svg" viewBox="0 0 300 273"><path d="M259.49,169.77c0,16.35.3,32.72-.06,49.06-.83,37.75-30.53,67-68.57,67.44q-41.21.47-82.42,0c-38.72-.41-68.49-30-68.84-68.52-.28-31.8-.35-63.61,0-95.41A109.55,109.55,0,0,1,148.66,13.5C209.31,13.06,258.34,61,259.45,122.06,259.74,138,259.49,153.86,259.49,169.77ZM108.07,122.66c-14.51.08-27,12.32-27.27,26.75-.3,15,12.52,27.88,27.59,27.77,14.52-.11,27-12.35,27.34-26.74C136.05,135.58,123.1,122.57,108.07,122.66Zm83.69,0c-14.39-.61-27.47,11.14-28.44,25.54-1,14.89,11.25,28.37,26.34,29s28.32-12,28.55-26.89C218.43,136,206.28,123.27,191.76,122.66Z" transform="translate(0 -13.5)"/><rect y="95.7" width="24.77" height="79.21"/><rect x="275.23" y="95.7" width="24.77" height="79.21"/></svg>