<?xml version="1.0" encoding="utf-8"?>
<!-- Generator: Adobe Illustrator 25.0.0, SVG Export Plug-In . SVG Version: 6.00 Build 0)  -->
<svg version="1.1" id="Capa_1" xmlns="http://www.w3.org/2000/svg" xmlns:xlink="http://www.w3.org/1999/xlink" x="0px" y="0px"
	 viewBox="0 0 100 100" style="enable-background:new 0 0 100 100;" xml:space="preserve">
<style type="text/css">
	.st0{fill:#111111;}
</style>
<path class="st0" d="M0.43,47.43c-0.09,1.23,0.47,2.53-0.39,3.68c0-1.18,0-2.37,0-3.55C0.15,47.47,0.28,47.43,0.43,47.43z"/>
<path d="M75.7,45.54c5.08-6.78,10.01-13.33,14.9-19.91c1.83-2.46,3.98-3.89,7.4-2.73c-3.63,4.78-7.2,9.48-10.77,14.17
	c-2.24,2.94-4.5,5.86-6.74,8.8c-1.98,2.6-1.99,3.14,0.02,5.81c6,7.97,12.02,15.92,18,23.91c0.41,0.54,1.36,1.07,0.88,1.83
	c-0.4,0.64-1.36,0.37-2.07,0.36c-2.5-0.01-4.01-1.59-5.35-3.45c-5.06-7.01-10.13-14.01-15.2-21.02c-0.3-0.42-0.64-0.81-1.12-1.44
	c-3.07,4.14-6.08,8.21-9.09,12.27c-2.68,3.62-5.34,7.27-8.06,10.85c-2,2.64-3.58,3.17-6.96,2.39c2.9-3.92,5.73-7.75,8.57-11.57
	c3.93-5.28,7.83-10.57,11.84-15.79c0.87-1.13,0.64-1.79-0.12-2.77c-6.24-8.06-12.44-16.15-18.66-24.25
	c3.34-1.23,5.43-0.53,7.75,2.58c4.54,6.11,9.05,12.23,13.58,18.35C74.83,44.41,75.19,44.88,75.7,45.54z"/>
<path d="M6.89,50.64c13.39,0.12,26.77,0.02,40.16,0.11c1.83,0.01,2.26-0.58,2.14-2.23c-0.18-2.58-0.28-5.15-0.71-7.72
	c-2.57-15.59-19.31-24.29-33.46-17.3C5.16,28.39,1.47,37.12,0.43,47.43c-0.48,1.19,0.19,2.5-0.39,3.68c0,0.89,0,1.78,0,2.66
	c0.54,0.34,0.37,0.92,0.44,1.4c0.78,5.37,1.93,10.65,5.49,14.95c6.44,7.78,14.95,9.96,24.52,8.24c9.87-1.77,15.54-8.09,17.85-17.67
	c0.28-1.18-0.03-1.56-1.22-1.67c-2.26-0.2-2.91,1.35-3.49,2.99C39.53,73.66,26.39,78.81,15.49,72.9C7.7,68.68,5.15,61.44,4.56,53.13
	C4.43,51.29,4.79,50.63,6.89,50.64z M4.86,45.26c0.96-13.24,11.68-22.07,24.28-19.91c7.47,1.28,13.54,7.75,15.25,16.24
	c1.1,5.48,1.1,5.48-4.39,5.48c-5.03,0-10.05,0-15.08,0c-6.13,0-12.27-0.05-18.4,0.03C5.02,47.13,4.75,46.75,4.86,45.26z"/>
</svg>
