<?xml version="1.0" encoding="utf-8"?>
<!-- Generator: Adobe Illustrator 25.0.0, SVG Export Plug-In . SVG Version: 6.00 Build 0)  -->
<svg version="1.1" id="Capa_1" xmlns="http://www.w3.org/2000/svg" xmlns:xlink="http://www.w3.org/1999/xlink" x="0px" y="0px"
	 viewBox="0 0 300 300" style="enable-background:new 0 0 300 300;" xml:space="preserve">
<g>
	<path d="M161.2,111.9c0.2,0.2,0.3,0.5,0.5,0.7c9.9,9.9,19.8,19.8,29.7,29.7c0.4,0.4,0.5,0.7,0.3,1.2c-5.2,14,3.8,28.9,18.6,30.9
		c12.2,1.6,23.8-7.1,25.6-19.3c1.8-12.4-6.1-23.7-18.3-26.1c-3.8-0.7-7.5-0.5-11.1,0.6c-0.6,0.2-0.9,0.1-1.3-0.3
		c-10.7-10.7-21.4-21.4-32.2-32.1c-0.4-0.4-0.5-0.8-0.3-1.3c4.2-13.5-4.7-27.5-18.6-29.5c-3.4-0.5-6.7-0.2-10,0.8
		c-0.5,0.2-0.8,0.1-1.1-0.3c-11.2-11.2-22.3-22.4-33.5-33.5c-0.4-0.4-0.4-0.6,0-1c8.9-8.8,17.7-17.7,26.6-26.6
		c7.9-7.8,19.8-7.8,27.7,0.1c28.6,28.6,57.2,57.2,85.8,85.8c14.9,14.9,29.7,29.7,44.6,44.6c4,4,6.1,8.9,6,14.6
		c-0.1,5.2-2.2,9.7-5.9,13.4c-17.5,17.5-35,34.9-52.4,52.4c-25.8,25.8-51.5,51.5-77.3,77.3c-2.8,2.8-6.1,4.8-10.1,5.6
		c-6.4,1.2-12.1-0.3-17-4.7c-0.3-0.3-0.6-0.6-0.9-0.9C92.9,250.6,49.4,207.1,6,163.7c-3-3-5.1-6.6-5.7-10.9
		c-0.9-6.2,0.7-11.7,4.9-16.3c2.8-3,5.8-5.8,8.7-8.7C40.7,101,67.5,74.2,94.3,47.4c0.3-0.3,0.6-0.6,0.9-0.9c0.2-0.2,0.4-0.2,0.6,0
		c0.1,0.1,0.2,0.2,0.3,0.3c10.9,10.9,21.9,21.9,32.8,32.8c0.4,0.4,0.5,0.8,0.3,1.4c-4.3,11.4,1,24.2,12.1,29.1
		c0.5,0.2,0.7,0.4,0.7,1c0,27,0,54,0,81c0,0.5-0.1,0.8-0.6,1c-9.2,4.1-14.6,13.6-13.5,23.6c1.2,10.9,10.1,19.4,20.9,20.3
		c12.3,0.9,23-7.7,24.7-19.8c1.3-9.5-3.5-18.8-11.9-23.3c-0.5-0.3-0.7-0.5-0.7-1.1c0-26.6,0-53.3,0-79.9c0-0.2,0-0.5,0-0.7
		C161,112,161.1,111.9,161.2,111.9z"/>
</g>
</svg>
