<svg id="Capa_1" data-name="Capa 1" xmlns="http://www.w3.org/2000/svg" viewBox="0 0 100 100"><path d="M49.13,91.93h0v.37m.15,1h0l.09,1,.06.59h0l.08.61h0v.59l.07.6h0v2.33c-.06.33.18.29.38.3H50c.16.38.47.26.75.22h.08c0,.21.18.26.33.29s.56.09.83.13.36-.18.5-.29,0-.31-.09-.4c-.29-.25-.22-.57-.22-.89s0-.49,0-1.34c0-.28,0-.68,0-1.17l-.08-1.57v-.6h0v-.6l0-.17c.08-.54.09-1.09.12-1.63h0c0-.2,0-.4.07-.6s0-.4.08-.6h0l.08-.6v-.22a.89.89,0,0,1,.07-.19,2,2,0,0,1,.14-.23c.05-.07.09-.15.14-.23s.15-.32.2-.46a4.66,4.66,0,0,0,.25-.4,2.93,2.93,0,0,0,.24-.59l.17-.25c.05-.06.14-.13.24-.23C57,84,57.72,83.66,59.19,82.12c.73-.76,1.44-1.56,2.15-2.33.36-.47.71-.94,1.07-1.4h0c.45-.44.73-1,1.17-1.46h0a7.63,7.63,0,0,0,.83-1.21,3.15,3.15,0,0,1,.51-.74c.1-.08.1-.21.17-.3l.69-1.13a47.1,47.1,0,0,0,3.9-8.21,36.52,36.52,0,0,0,1.37-4.58h0c.17-.38.17-.82.33-1.21a16.74,16.74,0,0,1,.32-1.69,47.14,47.14,0,0,0,.7-6,38.66,38.66,0,0,0,.08-4c-.07-1.15-.15-2.3-.21-3.45h0c0-.46-.08-.92-.13-1.37a32.44,32.44,0,0,0-.69-4.38c-.26-1-.5-2-.75-3a.61.61,0,0,1-.07-.17c-.27-.85-.48-1.71-.8-2.55h0l0,0a8.69,8.69,0,0,0-.57-1.77c-.44-1.13-.87-2.28-1.34-3.4a24.06,24.06,0,0,0-1.34-2.92h0a3.49,3.49,0,0,0-.37-.81,54.93,54.93,0,0,0-5.78-9.28c-.69-.88-1.4-1.74-2.1-2.62a4.35,4.35,0,0,0-.5-.55c-1-1.19-2.07-2.31-3.17-3.4C54.62,8,54.55,8,54.46,8l-.39-.48-.29-.24h0L53,6.42h0a.63.63,0,0,0-.22-.31,2,2,0,0,0-.31-.51h0a.57.57,0,0,0-.22-.32l0-.13h-.06c-.86-1.46-1.6-3-2.33-4.5h0a.24.24,0,0,0-.06-.23.54.54,0,0,0-.16-.36S49.57,0,49.5,0s0,.11,0,.17h0c-.1.14-.05.31-.05.46h0l-.07.17,0,.51h0a5.09,5.09,0,0,1-1.18,2.25A5.93,5.93,0,0,1,47,4.91l-.58.4h0a.84.84,0,0,0-.31.28h0a3.33,3.33,0,0,0-.28.25l-.38.36A20.6,20.6,0,0,0,43.56,8h0a2.06,2.06,0,0,0-.51.51,8.55,8.55,0,0,0-1.12,1.21,9.56,9.56,0,0,0-1,1.12h0l-.06.07h0a2.94,2.94,0,0,0-.54.68h0A1.63,1.63,0,0,0,40,12c-.92,1.13-1.76,2.34-2.61,3.53a2.61,2.61,0,0,0-.31.43l-.15.23a5.6,5.6,0,0,0-.38.61c-.31.64-.78,1.2-1.06,1.86h0a14.06,14.06,0,0,0-1.06,1.85,26.62,26.62,0,0,0-1.49,3.09h0c-.11.08-.13.21-.18.32-.43,1-.88,2.06-1.28,3.11a19.88,19.88,0,0,0-.85,2.5,35.43,35.43,0,0,0-1.19,4,23.42,23.42,0,0,0-.62,2.88h0a.56.56,0,0,0-.08.38h0a19.14,19.14,0,0,0-.52,3A10.31,10.31,0,0,0,28,41.23c-.21,1.61-.32,3.22-.43,4.84a43.37,43.37,0,0,0,0,5,1.66,1.66,0,0,0,.06.21,2.32,2.32,0,0,0,0,.37,42.5,42.5,0,0,0,.54,4.5A44.49,44.49,0,0,0,30.26,64,49.15,49.15,0,0,0,35,73.44a26.06,26.06,0,0,0,1.7,2.45l0,0s0,0,0,0a21.58,21.58,0,0,0,2,2.63.46.46,0,0,0,.24.29h0a26.91,26.91,0,0,0,2.45,2.78h0l2.76,2.77a33.71,33.71,0,0,0,3.31,2.77l.48.43a1,1,0,0,0,.22.39h0c.17.55.3,1.11.52,1.65h0M28.14,43.1l0,.17C28.12,43.23,28.13,43.16,28.14,43.1Zm22.34,29v0h0Zm.23-6.58Zm.15-3.6h0Zm16.71,8Zm-22,15.31s0,0,0,0l0,0A.28.28,0,0,1,45.58,85.21Zm2.6,2.46Zm1.08,3.07ZM67.54,69.92l0,0v0Zm.18-.25ZM68,69h0ZM53.62,7.31h0ZM43.06,8.6a.2.2,0,0,1-.08.08ZM29.21,35.24l0,0S29.19,35.24,29.21,35.24Zm9.5,43.28h0a.19.19,0,0,1,.13,0S38.8,78.55,38.71,78.52ZM48.16,88Z"/></svg>