<svg id="Capa_1" data-name="Capa 1" xmlns="http://www.w3.org/2000/svg" viewBox="0 0 256.47 299.94"><defs><style>.cls-1{fill:#010101;}</style></defs><path class="cls-1" d="M149.27,300c-.07-.32-.34-.27-.57-.28A24.67,24.67,0,0,1,137,295.8l-34-20.93a10.13,10.13,0,0,1-3.21-2.72,3.63,3.63,0,0,1,.9-5.38,8.62,8.62,0,0,1,2.07-1.06,68.07,68.07,0,0,0,14.66-7.19,6.32,6.32,0,0,1,7.46,0c7.9,4.83,15.91,9.48,23.83,14.27a2.5,2.5,0,0,0,3,0q49.49-29.61,99.05-59.14a2.68,2.68,0,0,0,1.49-2.67q-.06-60,0-120.08A3,3,0,0,0,250.67,88Q201.21,57.7,151.83,27.33a2.55,2.55,0,0,0-3.12,0Q99.15,57.84,49.52,88.23a2.28,2.28,0,0,0-1.23,2.22q0,60.4,0,120.82a2.12,2.12,0,0,0,1.2,2.07c8.12,4.85,16.18,9.79,24.31,14.62a21.54,21.54,0,0,0,11.75,3.45,9.73,9.73,0,0,0,9.78-9.16,22.87,22.87,0,0,0,.08-2.34q0-59.31,0-118.62c0-4.32,2.13-6.47,6.45-6.47h13c4.57,0,6.67,2.12,6.67,6.75q0,21.53,0,43.05,0,38.07,0,76.15a43.62,43.62,0,0,1-2.84,16.62c-4.94,12.15-14.28,18.27-27,19.87-11.28,1.42-21.42-1.85-31-7.39-8.68-5-17.27-10.24-25.85-15.45a25.24,25.24,0,0,1-12.58-19.84c0-.21-.05-.38-.28-.43V85.85c.39-.12.25-.46.28-.73A24.79,24.79,0,0,1,32.74,67c4.6-3.29,9.6-6,14.45-8.87Q92.21,31,137.26,4A27.27,27.27,0,0,1,145.51.71c1.45-.31,3-.07,4.35-.68h.58c.13.4.47.27.73.28a24.62,24.62,0,0,1,12.42,3.8q51,30.62,101.88,61.23c8.55,5.14,12.95,12.8,13,22.76q.09,61.79,0,123.58c0,9.89-4.23,17.63-12.74,22.75Q214.48,265.28,163.18,296a26.28,26.28,0,0,1-10.11,3.61c-.77.11-1.62-.21-2.33.35Z" transform="translate(-22.01 -0.03)"/><path class="cls-1" d="M179.36,215.65a73.06,73.06,0,0,1-25.43-5.15c-13.28-5.43-21.77-14.92-24.4-29.28a37.5,37.5,0,0,1-.61-6.69c0-3.82,2.32-6.1,6.11-6.11h12.29a5.51,5.51,0,0,1,5.81,4.86c.24,1.24.48,2.49.77,3.72a15.84,15.84,0,0,0,10.59,11.73,49.74,49.74,0,0,0,15,2.62c7.22.33,14.41.25,21.44-1.78a22.47,22.47,0,0,0,4.47-1.8c5.78-3.13,7.7-7.94,7.1-14.33-.23-2.46-2-3.84-3.94-4.92A39.76,39.76,0,0,0,197.67,165c-7.08-1.47-14.26-2.15-21.42-3-8.91-1.08-17.76-2.52-26.07-6.17-8.87-3.91-15.36-10.06-17.42-19.85-2.47-11.74-1-22.76,7.18-32.14,4.8-5.48,11-8.77,17.83-11,8.5-2.77,17.26-3.43,26.13-3.22A85,85,0,0,1,207,92.88c6.38,1.94,12.24,4.82,17,9.58,5.91,5.87,8.67,13.18,9.52,21.32a10.9,10.9,0,0,1,.12,2.91,5.58,5.58,0,0,1-5.52,4.88c-4.29,0-8.58,0-12.87,0a5.44,5.44,0,0,1-5.69-4.3c-1.15-4.13-3.1-7.68-6.94-9.9a21.34,21.34,0,0,0-7.7-2.63c-9.22-1.32-18.43-1.6-27.6.39a17.43,17.43,0,0,0-6.65,2.9c-3.51,2.58-4.14,6.48-3.23,10.81.33,1.59,1.78,2.38,3.17,3A46.57,46.57,0,0,0,171.53,135c8.6,1.72,17.33,2.66,26,4.15s17.13,3.25,25,7.19c9.75,4.86,14.75,12.82,15.66,23.53.65,7.57-.21,14.92-3.56,21.82-4.44,9.16-11.8,15.12-21,18.92C205,214.17,196.12,215.65,179.36,215.65Z" transform="translate(-22.01 -0.03)"/></svg>