<?xml version="1.0" encoding="utf-8"?>
<!-- Generator: Adobe Illustrator 25.0.0, SVG Export Plug-In . SVG Version: 6.00 Build 0)  -->
<svg version="1.1" id="Capa_1" xmlns="http://www.w3.org/2000/svg" xmlns:xlink="http://www.w3.org/1999/xlink" x="0px" y="0px"
	 viewBox="0 0 240 196.6" style="enable-background:new 0 0 240 196.6;" xml:space="preserve">
<g>
	<path d="M215.1,123c-1.3,4.2-4.2,7.2-7.6,9.7c-1.9,1.4-3.9,2.7-6,3.8c-4.5,2.4-9.3,3.6-14.2,4.3c-3.7,0.5-7.4,0.7-11.1,0.4
		c-0.6,0-0.5,0.3-0.6,0.6c-0.4,2.7-0.3,5.4-0.5,8.1c-0.5,7.4-1.3,14.7-3.4,21.8c-1.2,4.2-2.9,8.2-5.5,11.8
		c-3.2,4.5-7.4,7.7-12.5,9.7c-5,1.9-10.1,3.2-15.4,3.3c-9.1,0.2-16.5-4.4-20.2-12.8c-2.6-5.8-4.1-11.9-4.7-18.3
		c-0.5-6.3-0.7-12.6-0.9-18.9c-1.7,0.7-3.4,1.3-5.2,1.7c-5.2,1.2-10.4,1.1-15.6,0.1c-3.2-0.6-6.2-1.6-8.9-3.3
		c-1.2-0.7-2.3-1.6-3.2-2.6c-0.3-0.4-0.5-0.4-0.9-0.1c-2.6,2.1-5.5,3.5-8.8,4c-4.8,0.6-9.1-0.8-12.9-3.7c-4.1-3.1-7.1-7.2-9.7-11.6
		c-4.6-7.8-7.8-16.1-10.6-24.6c-4.2-12.8-7.4-25.8-10-39c-1.4-7.1-2.2-14.3-1.8-21.6c0.4-7.4,1.7-14.6,5-21.4
		c4.5-9.3,11.7-15.5,21.3-18.9c6.4-2.3,13.1-2.9,19.9-2.7C78.9,3,86.3,4.3,93.7,6.3c2,0.5,3.9,1.2,5.8,1.8c0.4,0.1,0.6,0.1,1-0.1
		c7.8-4.5,16.3-6.1,25.3-5.8c4.2,0.1,8.4,0.5,12.5,1.2c0.3,0.1,0.7,0,1-0.1c5.8-1.7,11.8-2.7,17.8-3.1c0.1,0,0.3,0.1,0.4-0.2
		c2.9,0,5.8,0,8.7,0c0.1,0.2,0.3,0.1,0.4,0.1c2.3,0.1,4.7,0.4,7,0.8c13,2.1,24,7.9,33.1,17.5c3.9,4.2,6.5,8.9,7.2,14.7
		c0.7,5.2,0.5,10.4-0.1,15.6c-0.8,6.6-2.2,13.1-4,19.5c-4.4,15.4-10.7,30-18.7,43.8c-0.1,0.2-0.4,0.4-0.3,0.8
		c2.5-0.1,4.9-0.4,7.4-0.9c2.3-0.4,4.5-1,6.9-0.9c3.7,0.1,6.8,1.4,8.9,4.7c0.6,0.8,0.8,1.8,1.2,2.7C215.1,120,215.1,121.5,215.1,123
		z M171.6,134.6c1.4,0.4,2.7,0.6,4.1,0.8c3.9,0.4,7.8,0.1,11.6-0.5c6.8-1,12.8-3.6,18.1-8c1.5-1.2,2.9-2.6,3.7-4.4
		c1.4-3-0.3-5.8-3.5-6.1c-1.6-0.2-3.2,0.1-4.8,0.4c-3.8,0.8-7.7,1.4-11.6,1.3c-2.4,0-4.8-0.2-7-1.3c-0.5-0.3-0.6-0.5-0.3-1
		c2.5-3.9,4.9-7.8,7.1-11.9c9.1-17,16-34.8,18.9-54c0.8-5.5,1.2-10.9,0.4-16.4c-0.4-3-1.2-6-3.2-8.4c-9.3-11.8-21.6-18-36.3-19.5
		c-4.5-0.5-9-0.4-13.5,0C149.6,6.1,144,7.2,138.7,9c-0.3,0.1-0.6,0.1-0.9,0.1c-5.9-1.4-11.9-2-18-1.5c-6.6,0.5-12.8,2.4-18.4,6
		c-0.4,0.2-0.7,0.3-1.1,0.2c-8.1-2.9-16.3-4.9-24.9-5.6C69,7.6,62.7,7.7,56.5,9.3C45.9,12,38.3,18.2,34,28.4
		c-2.7,6.4-3.5,13.1-3.7,19.9c-0.2,6,0.7,11.9,1.8,17.8c2.4,13,5.6,25.8,9.8,38.4c2.7,8.1,5.8,16.1,10.1,23.5
		c2.2,3.8,4.7,7.3,8.2,10c4.6,3.6,9.9,3.6,14.6,0.2c1.2-0.9,2.4-2,3.3-3.1c4.9-5.8,9.9-11.5,15-17.1c0.3-0.3,0.5-0.6,1-0.3
		c3.1,1.6,6.3,2.5,9.8,2.7c0.2,0,0.4-0.1,0.5,0.1c0.1,0.2-0.1,0.4-0.2,0.5c-0.9,1.2-1.9,2.3-2.8,3.5c-1,1.2-2.2,2-3.6,2.6
		c-2.4,0.9-4.9,1.3-7.3,1.9c-2.2,0.5-4.4,1.1-6.3,2.5c-2.5,1.8-2.8,4.7-0.8,7c0.8,1,1.9,1.7,3,2.3c3.2,1.7,6.7,2.3,10.3,2.6
		c5.6,0.5,11-0.5,15.9-3.4c1.4-0.8,2.7-1.8,4.1-3c0,0.3,0,0.5,0,0.7c0,10.3,0.1,20.6,1.1,30.9c0.4,4.6,1.5,8.9,3.8,13
		c3.8,6.5,9.3,10,16.8,9.9c5.9,0,11.5-1.5,16.8-4.3c4-2.1,6.9-5.2,8.9-9.2c1.2-2.5,2-5.1,2.5-7.7c0.9-4.3,1.4-8.6,2-12.9
		c0.7-5.3,1.3-10.5,2-15.8C171.1,139.2,171.4,136.9,171.6,134.6z"/>
	<path d="M110.6,115.9c0.5-2.3,1.4-4.5,2.2-6.8c1.3-3.8,3.2-7.3,4.6-11.1c2.3-6.4,3-13.1,2.6-19.8c-0.3-5.2-1-10.3-2.3-15.3
		c-1.7-6.9-6.8-10.9-13.8-11c-5.6-0.1-10.8,1.5-15.8,3.9c-0.7,0.3-1.4,0.7-2.2,1.1c0.1-2.1,0.4-4.2,0.7-6.2c1-6.2,2.6-12.3,5.4-18
		c2.9-5.9,6.7-11,12.3-14.6c4.2-2.8,8.8-4.5,13.8-4.9c19-1.8,34.7,4.8,47,19.3c4.5,5.3,7.9,11.1,10.4,17.6c0.4,1.1,0.4,1.1-0.7,1
		c-3.2-0.2-6.4-0.3-9.6,0.3c-3.8,0.7-7.3,2.2-9.7,5.4c-2.1,2.7-2.8,5.9-2.9,9.2c0,4.7,1.2,9.2,2.7,13.5c2.3,6.5,5.5,12.6,8.8,18.6
		c1.4,2.5,2.8,4.9,3.9,7.5c1.4,3.1,3.4,5.8,5.6,8.5c0.4,0.5,0.7,1,1.1,1.4c-0.3,0.3-0.6,0.3-0.9,0.4c-4.1,1.4-6.3,4.4-7,8.5
		c-0.2,1.4-0.2,2.9-0.3,4.3c-0.2,4-0.8,8-1.2,12c-0.6,4.9-1.2,9.8-1.8,14.6c-0.7,5.4-1.3,10.8-2.7,16.1c-1.5,5.4-4.7,9.4-10,11.5
		c-2.5,1-5.1,1.7-7.8,2.2c-2.2,0.4-4.4,0.5-6.6,0.2c-3.9-0.5-6.9-2.6-9.1-5.8c-2.3-3.4-3.4-7.2-3.8-11.2
		c-1.3-13.5-1.3-26.9-0.9-40.4c0.1-2.9-0.6-5.6-2.3-8C117.9,117,114.7,115.5,110.6,115.9C110.7,116,110.7,115.9,110.6,115.9z"/>
	<path d="M35.8,50.4c0-6.8,0.6-12.8,2.8-18.6c3.5-9.6,10.5-15.3,20.4-17.4c6.9-1.5,13.8-1.2,20.6-0.2c5.3,0.8,10.4,2,15.5,3.6
		c0.4,0.1,0.8,0.2,0.3,0.7c-5.9,6-9.5,13.3-11.9,21.3c-2.2,7.5-3.4,15.3-3.3,23.1c0,4,0.4,7.9,0.4,11.9c0,5-0.5,9.9-1,14.9
		c-0.8,7.8,1.3,14.9,6.3,21.1c0.9,1.1,1.9,2.2,3,3.1c0.4,0.3,0.3,0.5,0,0.7c-5.2,5.5-10.1,11.3-15.1,17.1c-1.3,1.5-2.9,2.8-4.9,3.3
		c-1.5,0.4-2.8,0-4.1-0.7c-1.9-1.1-3.4-2.6-4.8-4.4c-3.2-4.1-5.5-8.7-7.6-13.4c-4.3-9.8-7.4-20.1-10.2-30.5
		C40,78,38.2,69.7,36.8,61.4C36.2,57.5,35.7,53.6,35.8,50.4z"/>
	<path d="M147.5,12.3c2-0.5,3.8-0.7,5.6-1c3.9-0.5,7.8-0.7,11.8-0.5c10.7,0.5,20.4,3.5,28.8,10.4c2.6,2.1,5,4.6,7.1,7.3
		c1.4,1.8,1.8,3.9,2.1,6.1c0.7,4.8,0.3,9.5-0.4,14.2c-3,19.8-10.3,38.1-20,55.4c-1.2,2.1-2.5,4.2-3.8,6.3c-0.1,0.2-0.2,0.7-0.5,0.5
		c-0.3-0.3-0.9-0.6-0.7-1.2c0.2-0.4,0.4-0.7,0.6-1.1c2.8-5.2,3.8-10.9,3.5-16.8c-0.2-4.5-0.9-8.9-1.3-13.3
		c-0.4-3.8-0.1-7.6,0.5-11.4c0.7-4.3,1.2-8.7,1.2-13.1c0-2-0.7-4-1.4-5.8c-6.1-15.2-16-27.2-30.7-34.8
		C149.2,13.1,148.5,12.8,147.5,12.3z"/>
	<path d="M114.6,81.8c0.2,7-1.6,13.6-4.6,19.9c-1.9,4-3.4,8.2-4.6,12.5c-0.2,0.5-0.4,0.6-0.9,0.5c-4.4-0.2-8.2-1.7-11.5-4.5
		c-6.4-5.5-8.9-12.6-7.9-20.9c0.9-7.1,1.1-14.2,0.7-21.4c-0.1-1.1-0.1-2.3-0.2-3.4c-0.1-0.6,0.1-0.9,0.6-1.2
		c4.2-2.8,8.8-4.7,13.8-5.6c1.7-0.3,3.4-0.4,5.1-0.1c3.8,0.5,6.1,2.8,7,6.4c1.1,4.2,1.7,8.4,2.1,12.7
		C114.5,78.3,114.6,80.1,114.6,81.8z M104.4,60.5c-1.8,0-2.7,0.1-3.4,0.5c-1.1,0.5-1.4,1.4-1,2.5c1.4,3.2,5.8,5.3,9.2,1.8
		c1.3-1.3,1.1-2.6-0.4-3.5C107.3,60.9,105.6,60.6,104.4,60.5z"/>
	<path d="M173.9,105c-0.2-0.3-0.3-0.5-0.4-0.6c-2.4-5.3-5.5-10.3-8.1-15.5c-2.6-5.2-5-10.4-6.4-16c-0.6-2.3-0.9-4.6-0.9-7
		c0.1-4.8,2.5-7.8,7.3-8.8c3.5-0.8,7-0.6,10.5-0.2c0.5,0.1,0.7,0.2,0.7,0.8c-0.1,2.5-0.5,5-0.9,7.5c-1,6-1.2,12.1-0.3,18.2
		c0.5,3.7,0.9,7.4,0.9,11.1c-0.1,3.3-0.6,6.5-1.9,9.6C174.2,104.3,174.1,104.6,173.9,105z M166.6,64.9c2-0.2,3.6-1.2,4.6-3.1
		c0.6-1,0.2-1.9-0.9-2.2c-2.6-0.8-5.1-0.4-7.3,1c-0.9,0.6-1,1.4-0.4,2.3C163.6,64.1,164.9,64.8,166.6,64.9z"/>
	<path d="M88.4,135.3c1.6-0.7,3.2-1,4.8-1.3c2.3-0.5,4.7-1,6.9-1.9c2.3-0.9,4.2-2.2,5.7-4.1c1.2-1.5,2.5-3,3.7-4.5
		c0.2-0.3,0.5-0.5,0.7-0.8c1.5-1.5,2.4-1.8,4.6-0.2c1.6,1.2,2.3,3,2.3,5c0,0.7-0.3,1.2-0.7,1.8c-4.5,6.2-10.6,9-18.2,8.6
		c-2.8-0.1-5.6-0.6-8.3-1.6c-0.4-0.2-0.8-0.4-1.1-0.6C88.7,135.5,88.5,135.4,88.4,135.3z"/>
	<path d="M202.5,122.1c-1.6,1.5-3.2,2.5-4.8,3.5c-3.9,2.4-8.1,3.4-12.6,4c-2.7,0.3-5.4,0.5-8.1,0.3c-1.5-0.1-2.9-0.3-4.3-0.8
		c-0.5-0.2-0.7-0.5-0.7-1c0-1.3,0.1-2.6,0.5-3.8c0.4-1.4,1.3-2.4,2.6-2.8c0.8-0.3,1.6-0.5,2.3-0.7c0.2-0.1,0.4,0,0.7,0.1
		c2.8,2,6,2.6,9.4,2.8c4.8,0.2,9.6-0.4,14.3-1.4C202,122.2,202.1,122.2,202.5,122.1z"/>
	<path d="M110.7,116C110.7,116,110.7,116,110.7,116C110.6,116,110.6,116,110.7,116C110.7,115.9,110.7,116,110.7,116z"/>
</g>
</svg>
