<?xml version="1.0" encoding="utf-8"?>
<!-- Generator: Adobe Illustrator 25.0.0, SVG Export Plug-In . SVG Version: 6.00 Build 0)  -->
<svg version="1.1" id="Capa_1" xmlns="http://www.w3.org/2000/svg" xmlns:xlink="http://www.w3.org/1999/xlink" x="0px" y="0px"
	 viewBox="0 0 100 100" style="enable-background:new 0 0 100 100;" xml:space="preserve">
<style type="text/css">
	.st0{fill:#1D1D1B;}
</style>
<g>
	<path class="st0" d="M100,30.31c-0.77,0.85-0.82,1.99-1.19,2.99C94.91,43.8,87.26,49.15,76.1,49.49
		c-8.95,0.28-16.45-2.69-22.63-9.12c-1.41-1.47-2.89-2.87-4.33-4.31c-6.61-6.64-16.28-6.08-22.62,1.21
		c-0.43,0.49-0.87,0.98-1.46,1.64c6.38-11.17,13.91-18.07,18.17-18.94c2.73-0.56,5.91-0.62,5.91-0.62c2.77-0.06,4.85,0.24,5.4,0.32
		c1.17,0.17,3.86,0.57,6.88,1.85c3.05,1.29,5.82,3.17,8.31,5.59c2.21,2.14,4.38,4.34,6.66,6.41c3.34,3.04,7.27,4.38,11.81,3.77
		c4.41-0.6,7.67-3.06,10.51-6.28c0.36-0.41,0.57-1.05,1.29-1C100,30.1,100,30.2,100,30.31z"/>
	<path class="st0" d="M74.5,60.31c-1.91,9.17-7.96,16.23-16.16,18.23c-11.36,2.77-21.55,0.75-29.92-7.96
		c-1.84-1.92-3.68-3.85-5.76-5.54c-5.84-4.75-13.54-4.6-19.19,0.41c-1.19,1.06-2.3,2.2-3.48,3.34c1.16-8.92,9.23-17.17,18.22-18.69
		c7.14-1.21,14.05-0.76,20.54,2.77c2.83,1.54,5.2,3.67,7.47,5.91c1.64,1.62,3.25,3.26,4.96,4.79c6.12,5.47,14.21,5.39,20.25-0.19
		C72.46,62.44,73.4,61.42,74.5,60.31z"/>
</g>
</svg>
